@startuml counter

skinparam dpi 300
mainframe **stm** Counter


[*] --> 0


0 -d-> 1 : cnt_en == 1'
1 -r-> 2 : cnt_en == 1
2 -r-> 3 : cnt_en == 1
3 -r-> 4 : cnt_en == 1
4 -r-> 5 : cnt_en == 1
5 -r-> 6 : cnt_en == 1
6 -r-> 7 : cnt_en == 1
7 -u-> 0 : cnt_en == 1


1 --> 0 : reset_n == 0
2 --> 0 : reset_n == 0
3 --> 0 : reset_n == 0
4 --> 0 : reset_n == 0
5 --> 0 : reset_n == 0
6 --> 0 : reset_n == 0
7 --> 0 : reset_n == 0

@enduml